Coordinates
nRows=473
nColumns=2
inDegrees=yes
endheader
time	ankle_angle_r	
0	  5.096557	
0.0332661	  5.095573	
0.0665323	  5.095998	
0.0997984	  5.105601	
0.133065	  5.124529	
0.166331	  5.139147	
0.199597	  5.143339	
0.232863	  5.146566	
0.266129	  5.154724	
0.299395	  5.165032	
0.332661	  5.177699	
0.365927	  5.194128	
0.399194	  5.209247	
0.43246	  5.216146	
0.465726	  5.213932	
0.498992	  5.209412	
0.532258	  5.209367	
0.565524	  5.212481	
0.59879	  5.215461	
0.632056	  5.218298	
0.665323	  5.220128	
0.698589	  5.220151	
0.731855	  5.218966	
0.765121	  5.217519	
0.798387	  5.217997	
0.831653	  5.217399	
0.864919	  5.206295	
0.898185	  5.184899	
0.931452	  5.164145	
0.964718	  5.146658	
0.997984	  5.126112	
1.03125	  5.100903	
1.06452	  5.078224	
1.09778	  5.067889	
1.13105	  5.070496	
1.16431	  5.077464	
1.19758	  5.082608	
1.23085	  5.083965	
1.26411	  5.080285	
1.29738	  5.071076	
1.33065	  5.056345	
1.36391	  5.036749	
1.39718	  5.018423	
1.43044	  5.013492	
1.46371	  5.028638	
1.49698	  5.057313	
1.53024	  5.085620	
1.56351	  5.105708	
1.59677	  5.120051	
1.63004	  5.130983	
1.66331	  5.138871	
1.69657	  5.147070	
1.72984	  5.155992	
1.7631	  5.163717	
1.79637	  5.171687	
1.82964	  5.175753	
1.8629	  5.168870	
1.89617	  5.158462	
1.92944	  5.156484	
1.9627	  5.160963	
1.99597	  5.165113	
2.02923	  5.168668	
2.0625	  5.174427	
2.09577	  5.182672	
2.12903	  5.188363	
2.1623	  5.187902	
2.19556	  5.186548	
2.22883	  5.189542	
2.2621	  5.194380	
2.29536	  5.195818	
2.32863	  5.191746	
2.3619	  5.185945	
2.39516	  5.182576	
2.42843	  5.178635	
2.46169	  5.166539	
2.49496	  5.142213	
2.52823	  5.114424	
2.56149	  5.100495	
2.59476	  5.103502	
2.62802	  5.107316	
2.66129	  5.098997	
2.69456	  5.081480	
2.72782	  5.066024	
2.76109	  5.060915	
2.79435	  5.064793	
2.82762	  5.070775	
2.86089	  5.075752	
2.89415	  5.079629	
2.92742	  5.080432	
2.96069	  5.078346	
2.99395	  5.078584	
3.02722	  5.087135	
3.06048	  5.107902	
3.09375	  5.137297	
3.12702	  5.163298	
3.16028	  5.179249	
3.19355	  5.188077	
3.22681	  5.191219	
3.26008	  5.189843	
3.29335	  5.189869	
3.32661	  5.194847	
3.35988	  5.203071	
3.39315	  5.209469	
3.42641	  5.209353	
3.45968	  5.206328	
3.49294	  5.206470	
3.52621	  5.207950	
3.55948	  5.207833	
3.59274	  5.207123	
3.62601	  5.205555	
3.65927	  5.202065	
3.69254	  5.197270	
3.72581	  5.192860	
3.75907	  5.189870	
3.79234	  5.185631	
3.8256	  5.176968	
3.85887	  5.163520	
3.89214	  5.145529	
3.9254	  5.127055	
3.95867	  5.115438	
3.99194	  5.111000	
4.0252	  5.105262	
4.05847	  5.091409	
4.09173	  5.072686	
4.125	  5.058886	
4.15827	  5.052410	
4.19153	  5.043662	
4.2248	  5.029351	
4.25806	  5.021325	
4.29133	  5.027579	
4.3246	  5.041934	
4.35786	  5.052089	
4.39113	  5.049357	
4.4244	  5.040714	
4.45766	  5.043776	
4.49093	  5.061873	
4.52419	  5.082098	
4.55746	  5.094736	
4.59073	  5.100447	
4.62399	  5.108043	
4.65726	  5.124744	
4.69052	  5.144591	
4.72379	  5.158945	
4.75706	  5.169433	
4.79032	  5.176632	
4.82359	  5.176196	
4.85685	  5.171869	
4.89012	  5.170286	
4.92339	  5.169998	
4.95665	  5.170004	
4.98992	  5.175157	
5.02319	  5.187041	
5.05645	  5.199065	
5.08972	  5.203486	
5.12298	  5.201258	
5.15625	  5.199965	
5.18952	  5.202829	
5.22278	  5.207837	
5.25605	  5.211124	
5.28931	  5.205432	
5.32258	  5.185178	
5.35585	  5.155499	
5.38911	  5.131961	
5.42238	  5.126932	
5.45565	  5.135026	
5.48891	  5.141734	
5.52218	  5.144056	
5.55544	  5.145670	
5.58871	  5.142807	
5.62198	  5.131212	
5.65524	  5.111297	
5.68851	  5.087972	
5.72177	  5.074122	
5.75504	  5.075586	
5.78831	  5.080843	
5.82157	  5.082113	
5.85484	  5.082907	
5.8881	  5.082388	
5.92137	  5.079720	
5.95464	  5.082818	
5.9879	  5.096082	
6.02117	  5.115960	
6.05444	  5.137573	
6.0877	  5.155118	
6.12097	  5.166644	
6.15423	  5.173736	
6.1875	  5.173736	
6.22077	  5.169843	
6.25403	  5.173737	
6.2873	  5.185465	
6.32056	  5.195446	
6.35383	  5.202717	
6.3871	  5.210754	
6.42036	  5.216345	
6.45363	  5.214459	
6.4869	  5.207868	
6.52016	  5.204508	
6.55343	  5.205971	
6.58669	  5.205815	
6.61996	  5.199792	
6.65323	  5.190349	
6.68649	  5.183009	
6.71976	  5.180849	
6.75302	  5.178745	
6.78629	  5.169070	
6.81956	  5.152052	
6.85282	  5.132637	
6.88609	  5.116575	
6.91935	  5.109461	
6.95262	  5.109013	
6.98589	  5.106409	
7.01915	  5.098913	
7.05242	  5.093164	
7.08569	  5.095020	
7.11895	  5.097329	
7.15222	  5.087260	
7.18548	  5.068045	
7.21875	  5.054081	
7.25202	  5.049039	
7.28528	  5.045587	
7.31855	  5.036053	
7.35181	  5.020842	
7.38508	  5.012971	
7.41835	  5.023373	
7.45161	  5.043758	
7.48488	  5.061423	
7.51815	  5.077745	
7.55141	  5.094660	
7.58468	  5.106985	
7.61794	  5.117669	
7.65121	  5.134767	
7.68448	  5.155322	
7.71774	  5.168108	
7.75101	  5.166494	
7.78427	  5.157950	
7.81754	  5.157972	
7.85081	  5.169117	
7.88407	  5.180774	
7.91734	  5.187291	
7.9506	  5.190747	
7.98387	  5.194367	
8.01714	  5.198943	
8.0504	  5.203298	
8.08367	  5.209447	
8.11694	  5.220003	
8.1502	  5.230975	
8.18347	  5.235254	
8.21673	  5.228733	
8.25	  5.213204	
8.28327	  5.197196	
8.31653	  5.187400	
8.3498	  5.182482	
8.38306	  5.177496	
8.41633	  5.163909	
8.4496	  5.135457	
8.48286	  5.102139	
8.51613	  5.081380	
8.5494	  5.079927	
8.58266	  5.095573	
8.61593	  5.119238	
8.64919	  5.136294	
8.68246	  5.141665	
8.71573	  5.139939	
8.74899	  5.130554	
8.78226	  5.111934	
8.81552	  5.089629	
8.84879	  5.071246	
8.88206	  5.062481	
8.91532	  5.063350	
8.94859	  5.065499	
8.98185	  5.062912	
9.01512	  5.059503	
9.04839	  5.060482	
9.08165	  5.066671	
9.11492	  5.072311	
9.14819	  5.066809	
9.18145	  5.051831	
9.21472	  5.042874	
9.24798	  5.046267	
9.28125	  5.053012	
9.31452	  5.051576	
9.34778	  5.038872	
9.38105	  5.024735	
9.41431	  5.021596	
9.44758	  5.031389	
9.48085	  5.046211	
9.51411	  5.053416	
9.54738	  5.045057	
9.58065	  5.026558	
9.61391	  5.009217	
9.64718	  5.000585	
9.68044	  5.001929	
9.71371	  5.006595	
9.74698	  5.007184	
9.78024	  5.004272	
9.81351	  5.002383	
9.84677	  5.005200	
9.88004	  5.013153	
9.91331	  5.019365	
9.94657	  5.019145	
9.97984	  5.018140	
10.0131	  5.018654	
10.0464	  5.015578	
10.0796	  5.008604	
10.1129	  5.001817	
10.1462	  4.999219	
10.1794	  5.004123	
10.2127	  5.013644	
10.246	  5.021726	
10.2792	  5.027801	
10.3125	  5.034185	
10.3458	  5.043620	
10.379	  5.058206	
10.4123	  5.070628	
10.4456	  5.071486	
10.4788	  5.071248	
10.5121	  5.088248	
10.5454	  5.117132	
10.5786	  5.137871	
10.6119	  5.146048	
10.6452	  5.151746	
10.6784	  5.157801	
10.7117	  5.156651	
10.745	  5.148451	
10.7782	  5.145786	
10.8115	  5.156300	
10.8448	  5.176103	
10.878	  5.198147	
10.9113	  5.215760	
10.9446	  5.223849	
10.9778	  5.221396	
11.0111	  5.213404	
11.0444	  5.209296	
11.0776	  5.211812	
11.1109	  5.214077	
11.1442	  5.213784	
11.1774	  5.214615	
11.2107	  5.215485	
11.244	  5.211773	
11.2772	  5.198130	
11.3105	  5.174025	
11.3437	  5.153508	
11.377	  5.147579	
11.4103	  5.145112	
11.4435	  5.133796	
11.4768	  5.117070	
11.5101	  5.103606	
11.5433	  5.099957	
11.5766	  5.104656	
11.6099	  5.106380	
11.6431	  5.099680	
11.6764	  5.089882	
11.7097	  5.080263	
11.7429	  5.071345	
11.7762	  5.065209	
11.8095	  5.063636	
11.8427	  5.069522	
11.876	  5.085412	
11.9093	  5.109686	
11.9425	  5.138603	
11.9758	  5.166420	
12.0091	  5.183919	
12.0423	  5.184313	
12.0756	  5.170815	
12.1089	  5.154997	
12.1421	  5.146931	
12.1754	  5.148422	
12.2087	  5.156810	
12.2419	  5.169238	
12.2752	  5.180677	
12.3085	  5.187962	
12.3417	  5.192385	
12.375	  5.191592	
12.4083	  5.183679	
12.4415	  5.176469	
12.4748	  5.175945	
12.5081	  5.177837	
12.5413	  5.177989	
12.5746	  5.177440	
12.6079	  5.178739	
12.6411	  5.181956	
12.6744	  5.183703	
12.7077	  5.183230	
12.7409	  5.182486	
12.7742	  5.178319	
12.8075	  5.163529	
12.8407	  5.134687	
12.874	  5.100284	
12.9073	  5.077786	
12.9405	  5.072268	
12.9738	  5.070726	
13.0071	  5.065493	
13.0403	  5.062468	
13.0736	  5.062218	
13.1069	  5.056160	
13.1401	  5.043522	
13.1734	  5.032316	
13.2067	  5.027400	
13.2399	  5.029291	
13.2732	  5.035026	
13.3065	  5.040336	
13.3397	  5.047024	
13.373	  5.057924	
13.4062	  5.072136	
13.4395	  5.091330	
13.4728	  5.114109	
13.506	  5.133372	
13.5393	  5.146434	
13.5726	  5.154419	
13.6058	  5.159532	
13.6391	  5.165389	
13.6724	  5.173084	
13.7056	  5.182358	
13.7389	  5.192392	
13.7722	  5.199508	
13.8054	  5.202578	
13.8387	  5.205947	
13.872	  5.212493	
13.9052	  5.219758	
13.9385	  5.223002	
13.9718	  5.221634	
14.005	  5.221805	
14.0383	  5.226477	
14.0716	  5.230712	
14.1048	  5.232337	
14.1381	  5.232854	
14.1714	  5.231284	
14.2046	  5.229090	
14.2379	  5.229996	
14.2712	  5.234001	
14.3044	  5.239820	
14.3377	  5.244356	
14.371	  5.242088	
14.4042	  5.234061	
14.4375	  5.227351	
14.4708	  5.225606	
14.504	  5.229572	
14.5373	  5.237014	
14.5706	  5.241106	
14.6038	  5.239288	
14.6371	  5.235401	
14.6704	  5.232558	
14.7036	  5.233391	
14.7369	  5.237433	
14.7702	  5.237644	
14.8034	  5.231612	
14.8367	  5.226355	
14.87	  5.225650	
14.9032	  5.225454	
14.9365	  5.222085	
14.9698	  5.217051	
15.003	  5.214513	
15.0363	  5.214755	
15.0696	  5.213476	
15.1028	  5.208791	
15.1361	  5.201795	
15.1694	  5.193835	
15.2026	  5.185934	
15.2359	  5.174595	
15.2692	  5.155568	
15.3024	  5.131315	
15.3357	  5.107502	
15.369	  5.091498	
15.4022	  5.088318	
15.4355	  5.089092	
15.4687	  5.080965	
15.502	  5.067559	
15.5353	  5.060653	
15.5685	  5.063739	
15.6018	  5.075627	
15.6351	  5.093135	
15.6683	  5.109553	
15.7016	  5.121878	
